<svg width="50" height="56" viewBox="0 0 50 56" xmlns="http://www.w3.org/2000/svg">
<path d="M48.7903 23.3685L41.8438 18.7812V1.09375C41.8438 0.489672 41.354 0 40.75 0H14.5C13.896 0 13.4062 0.489672 13.4062 1.09375V5.25H9.25C8.64603 5.25 8.15625 5.73967 8.15625 6.34375V18.7813L1.20973 23.3686C0.903265 23.571 0.71875 23.9139 0.71875 24.2812V54.9062C0.71875 55.5103 1.20853 56 1.8125 56H20.0781C20.6821 56 21.1719 55.5103 21.1719 54.9062C21.1719 54.3022 20.6821 53.8125 20.0781 53.8125H4.45314L20.3994 37.8663L24.3973 40.5065C24.58 40.6271 24.79 40.6875 25 40.6875C25.21 40.6875 25.42 40.6271 25.6028 40.5065L29.6007 37.8663L45.547 53.8125H29.9219C29.3179 53.8125 28.8281 54.3022 28.8281 54.9062C28.8281 55.5103 29.3179 56 29.9219 56H48.1875C48.7915 56 49.2812 55.5103 49.2812 54.9062V24.2812C49.2812 23.9139 49.0967 23.571 48.7903 23.3685ZM46.2027 24.2812L41.8438 27.1598V21.4027L46.2027 24.2812ZM15.5938 2.1875H39.6562V28.6044L36.5938 30.6269V6.34375C36.5938 5.73967 36.104 5.25 35.5 5.25H15.5938V2.1875ZM8.15625 21.4027V27.1598L3.79733 24.2812L8.15625 21.4027ZM2.90625 52.2657V26.3143L18.536 36.6359L2.90625 52.2657ZM25 38.283L10.3438 28.6043V7.4375H34.4062V32.0714L25 38.283ZM47.0938 26.3143V52.2657L31.464 36.6358L47.0938 26.3143Z"/>
</svg>
